<?xml version="1.0" encoding="UTF-8" standalone="no"?>
<!DOCTYPE svg PUBLIC "-//W3C//DTD SVG 1.1//EN"
 "http://www.w3.org/Graphics/SVG/1.1/DTD/svg11.dtd">
<!-- Generated by graphviz version 2.43.0 (0)
 -->
<!-- Title: G Pages: 1 -->
<svg width="341pt" height="305pt"
 viewBox="0.00 0.00 341.00 305.00" xmlns="http://www.w3.org/2000/svg" xmlns:xlink="http://www.w3.org/1999/xlink">
<g id="graph0" class="graph" transform="scale(1 1) rotate(0) translate(4 301)">
<title>G</title>
<polygon fill="white" stroke="transparent" points="-4,4 -4,-301 337,-301 337,4 -4,4"/>
<!-- 2 -->
<g id="node1" class="node">
<title>2</title>
<ellipse fill="none" stroke="black" cx="77" cy="-192" rx="27" ry="18"/>
<text text-anchor="middle" x="77" y="-188.3" font-family="Times,serif" font-size="14.00">2</text>
</g>
<!-- 10 -->
<g id="node2" class="node">
<title>10</title>
<ellipse fill="none" stroke="black" cx="112" cy="-105" rx="27" ry="18"/>
<text text-anchor="middle" x="112" y="-101.3" font-family="Times,serif" font-size="14.00">10</text>
</g>
<!-- 2&#45;&gt;10 -->
<g id="edge1" class="edge">
<title>2&#45;&gt;10</title>
<path fill="none" stroke="black" d="M74.29,-173.69C73.47,-163.76 73.72,-151.26 78,-141 80.2,-135.72 83.61,-130.8 87.43,-126.4"/>
<polygon fill="black" stroke="black" points="90.08,-128.69 94.58,-119.1 85.08,-123.79 90.08,-128.69"/>
<text text-anchor="middle" x="95" y="-144.8" font-family="Times,serif" font-size="14.00">(0/1)</text>
</g>
<!-- 11 -->
<g id="node3" class="node">
<title>11</title>
<ellipse fill="none" stroke="black" cx="27" cy="-105" rx="27" ry="18"/>
<text text-anchor="middle" x="27" y="-101.3" font-family="Times,serif" font-size="14.00">11</text>
</g>
<!-- 2&#45;&gt;11 -->
<g id="edge2" class="edge">
<title>2&#45;&gt;11</title>
<path fill="none" stroke="black" d="M58.18,-178.73C50.48,-172.76 42.18,-164.94 37,-156 33.04,-149.15 30.62,-140.99 29.16,-133.27"/>
<polygon fill="black" stroke="black" points="32.59,-132.57 27.69,-123.18 25.67,-133.57 32.59,-132.57"/>
<text text-anchor="middle" x="54" y="-144.8" font-family="Times,serif" font-size="14.00">(1/1)</text>
</g>
<!-- 1 -->
<g id="node7" class="node">
<title>1</title>
<ellipse fill="none" stroke="black" cx="112" cy="-18" rx="27" ry="18"/>
<text text-anchor="middle" x="112" y="-14.3" font-family="Times,serif" font-size="14.00">1</text>
</g>
<!-- 10&#45;&gt;1 -->
<g id="edge6" class="edge">
<title>10&#45;&gt;1</title>
<path fill="none" stroke="black" d="M112,-86.8C112,-75.16 112,-59.55 112,-46.24"/>
<polygon fill="black" stroke="black" points="115.5,-46.18 112,-36.18 108.5,-46.18 115.5,-46.18"/>
<text text-anchor="middle" x="129" y="-57.8" font-family="Times,serif" font-size="14.00">(1/1)</text>
</g>
<!-- 11&#45;&gt;1 -->
<g id="edge7" class="edge">
<title>11&#45;&gt;1</title>
<path fill="none" stroke="black" d="M40.3,-89.3C49.57,-79.19 62.32,-65.57 74,-54 78.69,-49.36 83.81,-44.5 88.74,-39.93"/>
<polygon fill="black" stroke="black" points="91.23,-42.4 96.23,-33.06 86.5,-37.24 91.23,-42.4"/>
<text text-anchor="middle" x="91" y="-57.8" font-family="Times,serif" font-size="14.00">(1/1)</text>
</g>
<!-- 3 -->
<g id="node4" class="node">
<title>3</title>
<ellipse fill="none" stroke="black" cx="162" cy="-192" rx="27" ry="18"/>
<text text-anchor="middle" x="162" y="-188.3" font-family="Times,serif" font-size="14.00">3</text>
</g>
<!-- 3&#45;&gt;10 -->
<g id="edge3" class="edge">
<title>3&#45;&gt;10</title>
<path fill="none" stroke="black" d="M149.69,-175.76C145.12,-169.78 140.07,-162.74 136,-156 131.4,-148.38 126.99,-139.75 123.24,-131.82"/>
<polygon fill="black" stroke="black" points="126.37,-130.25 119.02,-122.63 120.01,-133.17 126.37,-130.25"/>
<text text-anchor="middle" x="153" y="-144.8" font-family="Times,serif" font-size="14.00">(1/1)</text>
</g>
<!-- 12 -->
<g id="node5" class="node">
<title>12</title>
<ellipse fill="none" stroke="black" cx="191" cy="-105" rx="27" ry="18"/>
<text text-anchor="middle" x="191" y="-101.3" font-family="Times,serif" font-size="14.00">12</text>
</g>
<!-- 3&#45;&gt;12 -->
<g id="edge4" class="edge">
<title>3&#45;&gt;12</title>
<path fill="none" stroke="black" d="M167.73,-174.21C171.78,-162.33 177.3,-146.17 181.94,-132.56"/>
<polygon fill="black" stroke="black" points="185.37,-133.35 185.28,-122.76 178.74,-131.09 185.37,-133.35"/>
<text text-anchor="middle" x="195" y="-144.8" font-family="Times,serif" font-size="14.00">(0/1)</text>
</g>
<!-- 12&#45;&gt;1 -->
<g id="edge8" class="edge">
<title>12&#45;&gt;1</title>
<path fill="none" stroke="black" d="M179.33,-88.66C171.4,-78.52 160.48,-65.1 150,-54 145.47,-49.21 140.42,-44.28 135.5,-39.69"/>
<polygon fill="black" stroke="black" points="137.74,-37 128,-32.83 133.02,-42.16 137.74,-37"/>
<text text-anchor="middle" x="180" y="-57.8" font-family="Times,serif" font-size="14.00">(1/1)</text>
</g>
<!-- 4 -->
<g id="node6" class="node">
<title>4</title>
<ellipse fill="none" stroke="black" cx="234" cy="-192" rx="27" ry="18"/>
<text text-anchor="middle" x="234" y="-188.3" font-family="Times,serif" font-size="14.00">4</text>
</g>
<!-- 4&#45;&gt;12 -->
<g id="edge5" class="edge">
<title>4&#45;&gt;12</title>
<path fill="none" stroke="black" d="M229.11,-173.84C225.98,-163.96 221.48,-151.46 216,-141 213.97,-137.13 211.56,-133.2 209.06,-129.44"/>
<polygon fill="black" stroke="black" points="211.79,-127.24 203.16,-121.09 206.07,-131.28 211.79,-127.24"/>
<text text-anchor="middle" x="239" y="-144.8" font-family="Times,serif" font-size="14.00">(1/1)</text>
</g>
<!-- 0 -->
<g id="node8" class="node">
<title>0</title>
<ellipse fill="none" stroke="black" cx="198" cy="-279" rx="27" ry="18"/>
<text text-anchor="middle" x="198" y="-275.3" font-family="Times,serif" font-size="14.00">0</text>
</g>
<!-- 0&#45;&gt;2 -->
<g id="edge9" class="edge">
<title>0&#45;&gt;2</title>
<path fill="none" stroke="black" d="M175.66,-268.45C161.94,-262.11 144.31,-253.12 130,-243 118.43,-234.81 106.83,-224.21 97.45,-214.88"/>
<polygon fill="black" stroke="black" points="99.95,-212.43 90.45,-207.74 94.95,-217.33 99.95,-212.43"/>
<text text-anchor="middle" x="147" y="-231.8" font-family="Times,serif" font-size="14.00">(1/1)</text>
</g>
<!-- 0&#45;&gt;3 -->
<g id="edge10" class="edge">
<title>0&#45;&gt;3</title>
<path fill="none" stroke="black" d="M185.71,-262.7C181.48,-256.82 177.05,-249.87 174,-243 170.81,-235.82 168.39,-227.67 166.6,-220.06"/>
<polygon fill="black" stroke="black" points="170,-219.24 164.52,-210.17 163.15,-220.68 170,-219.24"/>
<text text-anchor="middle" x="191" y="-231.8" font-family="Times,serif" font-size="14.00">(1/1)</text>
</g>
<!-- 0&#45;&gt;4 -->
<g id="edge11" class="edge">
<title>0&#45;&gt;4</title>
<path fill="none" stroke="black" d="M205.11,-261.21C210.22,-249.14 217.21,-232.64 223.03,-218.89"/>
<polygon fill="black" stroke="black" points="226.35,-220.04 227.02,-209.47 219.9,-217.31 226.35,-220.04"/>
<text text-anchor="middle" x="235" y="-231.8" font-family="Times,serif" font-size="14.00">(1/1)</text>
</g>
<!-- 5 -->
<g id="node9" class="node">
<title>5</title>
<ellipse fill="none" stroke="black" cx="306" cy="-192" rx="27" ry="18"/>
<text text-anchor="middle" x="306" y="-188.3" font-family="Times,serif" font-size="14.00">5</text>
</g>
<!-- 0&#45;&gt;5 -->
<g id="edge12" class="edge">
<title>0&#45;&gt;5</title>
<path fill="none" stroke="black" d="M218.65,-267.16C230.1,-260.76 244.33,-252.13 256,-243 266.57,-234.72 277.24,-224.39 285.99,-215.27"/>
<polygon fill="black" stroke="black" points="288.55,-217.66 292.84,-207.97 283.45,-212.87 288.55,-217.66"/>
<text text-anchor="middle" x="289" y="-231.8" font-family="Times,serif" font-size="14.00">(0/1)</text>
</g>
</g>
</svg>
