<?xml version="1.0" encoding="UTF-8" standalone="no"?>
<!DOCTYPE svg PUBLIC "-//W3C//DTD SVG 1.1//EN"
 "http://www.w3.org/Graphics/SVG/1.1/DTD/svg11.dtd">
<!-- Generated by graphviz version 2.43.0 (0)
 -->
<!-- Title: G Pages: 1 -->
<svg width="129pt" height="392pt"
 viewBox="0.00 0.00 129.00 392.00" xmlns="http://www.w3.org/2000/svg" xmlns:xlink="http://www.w3.org/1999/xlink">
<g id="graph0" class="graph" transform="scale(1 1) rotate(0) translate(4 388)">
<title>G</title>
<polygon fill="white" stroke="transparent" points="-4,4 -4,-388 125,-388 125,4 -4,4"/>
<!-- 0 -->
<g id="node1" class="node">
<title>0</title>
<ellipse fill="none" stroke="black" cx="68" cy="-366" rx="27" ry="18"/>
<text text-anchor="middle" x="68" y="-362.3" font-family="Times,serif" font-size="14.00">0</text>
</g>
<!-- 2 -->
<g id="node2" class="node">
<title>2</title>
<ellipse fill="none" stroke="black" cx="30" cy="-279" rx="27" ry="18"/>
<text text-anchor="middle" x="30" y="-275.3" font-family="Times,serif" font-size="14.00">2</text>
</g>
<!-- 0&#45;&gt;2 -->
<g id="edge1" class="edge">
<title>0&#45;&gt;2</title>
<path fill="none" stroke="black" d="M56.45,-349.54C52.42,-343.64 48.13,-336.72 45,-330 41.63,-322.77 38.8,-314.61 36.55,-307"/>
<polygon fill="black" stroke="black" points="39.85,-305.83 33.82,-297.12 33.1,-307.69 39.85,-305.83"/>
<text text-anchor="middle" x="62" y="-318.8" font-family="Times,serif" font-size="14.00">(1/1)</text>
</g>
<!-- 3 -->
<g id="node3" class="node">
<title>3</title>
<ellipse fill="none" stroke="black" cx="90" cy="-192" rx="27" ry="18"/>
<text text-anchor="middle" x="90" y="-188.3" font-family="Times,serif" font-size="14.00">3</text>
</g>
<!-- 0&#45;&gt;3 -->
<g id="edge2" class="edge">
<title>0&#45;&gt;3</title>
<path fill="none" stroke="black" d="M74.15,-348.11C75.99,-342.42 77.83,-336 79,-330 86.33,-292.37 88.79,-248.01 89.61,-220.19"/>
<polygon fill="black" stroke="black" points="93.11,-220.12 89.85,-210.04 86.11,-219.95 93.11,-220.12"/>
<text text-anchor="middle" x="104" y="-275.3" font-family="Times,serif" font-size="14.00">(0/1)</text>
</g>
<!-- 2&#45;&gt;3 -->
<g id="edge3" class="edge">
<title>2&#45;&gt;3</title>
<path fill="none" stroke="black" d="M32.49,-260.65C34.58,-250.46 38.34,-237.72 45,-228 49.46,-221.49 55.51,-215.64 61.72,-210.67"/>
<polygon fill="black" stroke="black" points="64.19,-213.2 70.17,-204.46 60.04,-207.56 64.19,-213.2"/>
<text text-anchor="middle" x="62" y="-231.8" font-family="Times,serif" font-size="14.00">(1/1)</text>
</g>
<!-- 4 -->
<g id="node4" class="node">
<title>4</title>
<ellipse fill="none" stroke="black" cx="27" cy="-105" rx="27" ry="18"/>
<text text-anchor="middle" x="27" y="-101.3" font-family="Times,serif" font-size="14.00">4</text>
</g>
<!-- 2&#45;&gt;4 -->
<g id="edge4" class="edge">
<title>2&#45;&gt;4</title>
<path fill="none" stroke="black" d="M26.8,-261.03C24.39,-247.32 21.28,-227.49 20,-210 18.09,-183.87 20.58,-154.04 23.1,-133.04"/>
<polygon fill="black" stroke="black" points="26.6,-133.3 24.4,-122.94 19.65,-132.41 26.6,-133.3"/>
<text text-anchor="middle" x="37" y="-188.3" font-family="Times,serif" font-size="14.00">(0/1)</text>
</g>
<!-- 3&#45;&gt;4 -->
<g id="edge5" class="edge">
<title>3&#45;&gt;4</title>
<path fill="none" stroke="black" d="M78.44,-175.41C68.94,-162.59 55.33,-144.22 44.49,-129.6"/>
<polygon fill="black" stroke="black" points="47.25,-127.44 38.48,-121.49 41.62,-131.61 47.25,-127.44"/>
<text text-anchor="middle" x="79" y="-144.8" font-family="Times,serif" font-size="14.00">(1/1)</text>
</g>
<!-- 1 -->
<g id="node5" class="node">
<title>1</title>
<ellipse fill="none" stroke="black" cx="27" cy="-18" rx="27" ry="18"/>
<text text-anchor="middle" x="27" y="-14.3" font-family="Times,serif" font-size="14.00">1</text>
</g>
<!-- 4&#45;&gt;1 -->
<g id="edge6" class="edge">
<title>4&#45;&gt;1</title>
<path fill="none" stroke="black" d="M27,-86.8C27,-75.16 27,-59.55 27,-46.24"/>
<polygon fill="black" stroke="black" points="30.5,-46.18 27,-36.18 23.5,-46.18 30.5,-46.18"/>
<text text-anchor="middle" x="44" y="-57.8" font-family="Times,serif" font-size="14.00">(1/1)</text>
</g>
</g>
</svg>
