<?xml version="1.0" encoding="UTF-8" standalone="no"?>
<!DOCTYPE svg PUBLIC "-//W3C//DTD SVG 1.1//EN"
 "http://www.w3.org/Graphics/SVG/1.1/DTD/svg11.dtd">
<!-- Generated by graphviz version 2.43.0 (0)
 -->
<!-- Title: G Pages: 1 -->
<svg width="206pt" height="305pt"
 viewBox="0.00 0.00 206.00 305.00" xmlns="http://www.w3.org/2000/svg" xmlns:xlink="http://www.w3.org/1999/xlink">
<g id="graph0" class="graph" transform="scale(1 1) rotate(0) translate(4 301)">
<title>G</title>
<polygon fill="white" stroke="transparent" points="-4,4 -4,-301 202,-301 202,4 -4,4"/>
<!-- 0 -->
<g id="node1" class="node">
<title>0</title>
<ellipse fill="none" stroke="black" cx="99" cy="-279" rx="27" ry="18"/>
<text text-anchor="middle" x="99" y="-275.3" font-family="Times,serif" font-size="14.00">0</text>
</g>
<!-- 2 -->
<g id="node2" class="node">
<title>2</title>
<ellipse fill="none" stroke="black" cx="99" cy="-192" rx="27" ry="18"/>
<text text-anchor="middle" x="99" y="-188.3" font-family="Times,serif" font-size="14.00">2</text>
</g>
<!-- 0&#45;&gt;2 -->
<g id="edge1" class="edge">
<title>0&#45;&gt;2</title>
<path fill="none" stroke="black" d="M99,-260.8C99,-249.16 99,-233.55 99,-220.24"/>
<polygon fill="black" stroke="black" points="102.5,-220.18 99,-210.18 95.5,-220.18 102.5,-220.18"/>
<text text-anchor="middle" x="116" y="-231.8" font-family="Times,serif" font-size="14.00">(1/1)</text>
</g>
<!-- 3 -->
<g id="node3" class="node">
<title>3</title>
<ellipse fill="none" stroke="black" cx="27" cy="-105" rx="27" ry="18"/>
<text text-anchor="middle" x="27" y="-101.3" font-family="Times,serif" font-size="14.00">3</text>
</g>
<!-- 2&#45;&gt;3 -->
<g id="edge2" class="edge">
<title>2&#45;&gt;3</title>
<path fill="none" stroke="black" d="M82.68,-177.46C75.66,-171.26 67.56,-163.61 61,-156 54.25,-148.18 47.67,-138.98 42.12,-130.62"/>
<polygon fill="black" stroke="black" points="44.91,-128.49 36.55,-121.99 39.03,-132.29 44.91,-128.49"/>
<text text-anchor="middle" x="78" y="-144.8" font-family="Times,serif" font-size="14.00">(1/1)</text>
</g>
<!-- 4 -->
<g id="node4" class="node">
<title>4</title>
<ellipse fill="none" stroke="black" cx="99" cy="-105" rx="27" ry="18"/>
<text text-anchor="middle" x="99" y="-101.3" font-family="Times,serif" font-size="14.00">4</text>
</g>
<!-- 2&#45;&gt;4 -->
<g id="edge3" class="edge">
<title>2&#45;&gt;4</title>
<path fill="none" stroke="black" d="M99,-173.8C99,-162.16 99,-146.55 99,-133.24"/>
<polygon fill="black" stroke="black" points="102.5,-133.18 99,-123.18 95.5,-133.18 102.5,-133.18"/>
<text text-anchor="middle" x="116" y="-144.8" font-family="Times,serif" font-size="14.00">(0/1)</text>
</g>
<!-- 5 -->
<g id="node5" class="node">
<title>5</title>
<ellipse fill="none" stroke="black" cx="171" cy="-105" rx="27" ry="18"/>
<text text-anchor="middle" x="171" y="-101.3" font-family="Times,serif" font-size="14.00">5</text>
</g>
<!-- 2&#45;&gt;5 -->
<g id="edge4" class="edge">
<title>2&#45;&gt;5</title>
<path fill="none" stroke="black" d="M115.32,-177.46C122.34,-171.26 130.44,-163.61 137,-156 143.75,-148.18 150.33,-138.98 155.88,-130.62"/>
<polygon fill="black" stroke="black" points="158.97,-132.29 161.45,-121.99 153.09,-128.49 158.97,-132.29"/>
<text text-anchor="middle" x="165" y="-144.8" font-family="Times,serif" font-size="14.00">(0/1)</text>
</g>
<!-- 1 -->
<g id="node6" class="node">
<title>1</title>
<ellipse fill="none" stroke="black" cx="99" cy="-18" rx="27" ry="18"/>
<text text-anchor="middle" x="99" y="-14.3" font-family="Times,serif" font-size="14.00">1</text>
</g>
<!-- 3&#45;&gt;1 -->
<g id="edge5" class="edge">
<title>3&#45;&gt;1</title>
<path fill="none" stroke="black" d="M36.55,-88.01C42.93,-77.85 51.81,-64.65 61,-54 65.31,-49.01 70.27,-44 75.16,-39.39"/>
<polygon fill="black" stroke="black" points="77.65,-41.86 82.68,-32.54 72.93,-36.69 77.65,-41.86"/>
<text text-anchor="middle" x="78" y="-57.8" font-family="Times,serif" font-size="14.00">(1/1)</text>
</g>
<!-- 4&#45;&gt;1 -->
<g id="edge6" class="edge">
<title>4&#45;&gt;1</title>
<path fill="none" stroke="black" d="M99,-86.8C99,-75.16 99,-59.55 99,-46.24"/>
<polygon fill="black" stroke="black" points="102.5,-46.18 99,-36.18 95.5,-46.18 102.5,-46.18"/>
<text text-anchor="middle" x="116" y="-57.8" font-family="Times,serif" font-size="14.00">(0/1)</text>
</g>
<!-- 5&#45;&gt;1 -->
<g id="edge7" class="edge">
<title>5&#45;&gt;1</title>
<path fill="none" stroke="black" d="M161.45,-88.01C155.07,-77.85 146.19,-64.65 137,-54 132.69,-49.01 127.73,-44 122.84,-39.39"/>
<polygon fill="black" stroke="black" points="125.07,-36.69 115.32,-32.54 120.35,-41.86 125.07,-36.69"/>
<text text-anchor="middle" x="165" y="-57.8" font-family="Times,serif" font-size="14.00">(0/1)</text>
</g>
</g>
</svg>
