<?xml version="1.0" encoding="UTF-8" standalone="no"?>
<!DOCTYPE svg PUBLIC "-//W3C//DTD SVG 1.1//EN"
 "http://www.w3.org/Graphics/SVG/1.1/DTD/svg11.dtd">
<!-- Generated by graphviz version 2.43.0 (0)
 -->
<!-- Title: G Pages: 1 -->
<svg width="176pt" height="305pt"
 viewBox="0.00 0.00 176.00 305.00" xmlns="http://www.w3.org/2000/svg" xmlns:xlink="http://www.w3.org/1999/xlink">
<g id="graph0" class="graph" transform="scale(1 1) rotate(0) translate(4 301)">
<title>G</title>
<polygon fill="white" stroke="transparent" points="-4,4 -4,-301 172,-301 172,4 -4,4"/>
<!-- 0 -->
<g id="node1" class="node">
<title>0</title>
<ellipse fill="none" stroke="black" cx="105" cy="-279" rx="27" ry="18"/>
<text text-anchor="middle" x="105" y="-275.3" font-family="Times,serif" font-size="14.00">0</text>
</g>
<!-- 2 -->
<g id="node2" class="node">
<title>2</title>
<ellipse fill="none" stroke="black" cx="69" cy="-192" rx="27" ry="18"/>
<text text-anchor="middle" x="69" y="-188.3" font-family="Times,serif" font-size="14.00">2</text>
</g>
<!-- 0&#45;&gt;2 -->
<g id="edge1" class="edge">
<title>0&#45;&gt;2</title>
<path fill="none" stroke="black" d="M92.71,-262.7C88.48,-256.82 84.05,-249.87 81,-243 77.81,-235.82 75.39,-227.67 73.6,-220.06"/>
<polygon fill="black" stroke="black" points="77,-219.24 71.52,-210.17 70.15,-220.68 77,-219.24"/>
<text text-anchor="middle" x="98" y="-231.8" font-family="Times,serif" font-size="14.00">(1/1)</text>
</g>
<!-- 3 -->
<g id="node3" class="node">
<title>3</title>
<ellipse fill="none" stroke="black" cx="141" cy="-192" rx="27" ry="18"/>
<text text-anchor="middle" x="141" y="-188.3" font-family="Times,serif" font-size="14.00">3</text>
</g>
<!-- 0&#45;&gt;3 -->
<g id="edge2" class="edge">
<title>0&#45;&gt;3</title>
<path fill="none" stroke="black" d="M112.11,-261.21C117.22,-249.14 124.21,-232.64 130.03,-218.89"/>
<polygon fill="black" stroke="black" points="133.35,-220.04 134.02,-209.47 126.9,-217.31 133.35,-220.04"/>
<text text-anchor="middle" x="142" y="-231.8" font-family="Times,serif" font-size="14.00">(1/1)</text>
</g>
<!-- 4 -->
<g id="node4" class="node">
<title>4</title>
<ellipse fill="none" stroke="black" cx="27" cy="-105" rx="27" ry="18"/>
<text text-anchor="middle" x="27" y="-101.3" font-family="Times,serif" font-size="14.00">4</text>
</g>
<!-- 2&#45;&gt;4 -->
<g id="edge3" class="edge">
<title>2&#45;&gt;4</title>
<path fill="none" stroke="black" d="M55.6,-176.15C50.78,-170.21 45.64,-163.1 42,-156 38.36,-148.91 35.45,-140.78 33.2,-133.17"/>
<polygon fill="black" stroke="black" points="36.51,-132.01 30.53,-123.26 29.75,-133.83 36.51,-132.01"/>
<text text-anchor="middle" x="59" y="-144.8" font-family="Times,serif" font-size="14.00">(1/1)</text>
</g>
<!-- 5 -->
<g id="node5" class="node">
<title>5</title>
<ellipse fill="none" stroke="black" cx="99" cy="-105" rx="27" ry="18"/>
<text text-anchor="middle" x="99" y="-101.3" font-family="Times,serif" font-size="14.00">5</text>
</g>
<!-- 2&#45;&gt;5 -->
<g id="edge4" class="edge">
<title>2&#45;&gt;5</title>
<path fill="none" stroke="black" d="M74.04,-174.23C77.05,-164.48 81.05,-151.98 85,-141 86.05,-138.08 87.19,-135.03 88.36,-132.02"/>
<polygon fill="black" stroke="black" points="91.64,-133.23 92.06,-122.64 85.13,-130.66 91.64,-133.23"/>
<text text-anchor="middle" x="102" y="-144.8" font-family="Times,serif" font-size="14.00">(0/1)</text>
</g>
<!-- 3&#45;&gt;5 -->
<g id="edge5" class="edge">
<title>3&#45;&gt;5</title>
<path fill="none" stroke="black" d="M134.1,-174.13C129.96,-164.34 124.46,-151.84 119,-141 117.38,-137.78 115.59,-134.43 113.79,-131.15"/>
<polygon fill="black" stroke="black" points="116.69,-129.17 108.72,-122.19 110.6,-132.62 116.69,-129.17"/>
<text text-anchor="middle" x="143" y="-144.8" font-family="Times,serif" font-size="14.00">(1/1)</text>
</g>
<!-- 1 -->
<g id="node6" class="node">
<title>1</title>
<ellipse fill="none" stroke="black" cx="62" cy="-18" rx="27" ry="18"/>
<text text-anchor="middle" x="62" y="-14.3" font-family="Times,serif" font-size="14.00">1</text>
</g>
<!-- 4&#45;&gt;1 -->
<g id="edge7" class="edge">
<title>4&#45;&gt;1</title>
<path fill="none" stroke="black" d="M29.6,-86.86C31.46,-76.99 34.46,-64.49 39,-54 40.61,-50.28 42.61,-46.52 44.76,-42.91"/>
<polygon fill="black" stroke="black" points="47.78,-44.67 50.24,-34.37 41.89,-40.89 47.78,-44.67"/>
<text text-anchor="middle" x="56" y="-57.8" font-family="Times,serif" font-size="14.00">(1/1)</text>
</g>
<!-- 5&#45;&gt;1 -->
<g id="edge6" class="edge">
<title>5&#45;&gt;1</title>
<path fill="none" stroke="black" d="M91.87,-87.61C86.63,-75.58 79.4,-58.98 73.37,-45.13"/>
<polygon fill="black" stroke="black" points="76.44,-43.4 69.24,-35.63 70.02,-46.19 76.44,-43.4"/>
<text text-anchor="middle" x="99" y="-57.8" font-family="Times,serif" font-size="14.00">(1/2)</text>
</g>
</g>
</svg>
