<?xml version="1.0" encoding="UTF-8" standalone="no"?>
<!DOCTYPE svg PUBLIC "-//W3C//DTD SVG 1.1//EN"
 "http://www.w3.org/Graphics/SVG/1.1/DTD/svg11.dtd">
<!-- Generated by graphviz version 2.43.0 (0)
 -->
<!-- Title: G Pages: 1 -->
<svg width="173pt" height="305pt"
 viewBox="0.00 0.00 173.38 305.00" xmlns="http://www.w3.org/2000/svg" xmlns:xlink="http://www.w3.org/1999/xlink">
<g id="graph0" class="graph" transform="scale(1 1) rotate(0) translate(4 301)">
<title>G</title>
<polygon fill="white" stroke="transparent" points="-4,4 -4,-301 169.38,-301 169.38,4 -4,4"/>
<!-- 3 -->
<g id="node1" class="node">
<title>3</title>
<ellipse fill="none" stroke="black" cx="138.38" cy="-279" rx="27" ry="18"/>
<text text-anchor="middle" x="138.38" y="-275.3" font-family="Times,serif" font-size="14.00">3</text>
</g>
<!-- 1 -->
<g id="node2" class="node">
<title>1</title>
<ellipse fill="none" stroke="black" cx="89.38" cy="-192" rx="27" ry="18"/>
<text text-anchor="middle" x="89.38" y="-188.3" font-family="Times,serif" font-size="14.00">1</text>
</g>
<!-- 3&#45;&gt;1 -->
<g id="edge1" class="edge">
<title>3&#45;&gt;1</title>
<path fill="none" stroke="black" d="M118.15,-266.97C109.34,-261.06 99.8,-252.94 94.38,-243 90.64,-236.15 88.91,-227.99 88.23,-220.27"/>
<polygon fill="black" stroke="black" points="91.72,-220.05 87.87,-210.18 84.73,-220.3 91.72,-220.05"/>
<text text-anchor="middle" x="99.38" y="-231.8" font-family="Times,serif" font-size="14.00">0</text>
</g>
<!-- 2 -->
<g id="node3" class="node">
<title>2</title>
<ellipse fill="none" stroke="black" cx="102.38" cy="-18" rx="27" ry="18"/>
<text text-anchor="middle" x="102.38" y="-14.3" font-family="Times,serif" font-size="14.00">2</text>
</g>
<!-- 3&#45;&gt;2 -->
<g id="edge2" class="edge">
<title>3&#45;&gt;2</title>
<path fill="none" stroke="black" d="M137.35,-260.99C134.87,-223.38 127.62,-130.4 112.38,-54 111.84,-51.3 111.19,-48.51 110.5,-45.74"/>
<polygon fill="black" stroke="black" points="113.83,-44.68 107.82,-35.95 107.08,-46.52 113.83,-44.68"/>
<text text-anchor="middle" x="132.38" y="-144.8" font-family="Times,serif" font-size="14.00">0</text>
</g>
<!-- 1&#45;&gt;3 -->
<g id="edge8" class="edge">
<title>1&#45;&gt;3</title>
<path fill="none" stroke="black" d="M98.72,-209.21C105.89,-221.65 115.92,-239.05 124.1,-253.24"/>
<polygon fill="black" stroke="black" points="121.13,-255.1 129.16,-262.01 127.2,-251.6 121.13,-255.1"/>
<text text-anchor="middle" x="121.38" y="-231.8" font-family="Times,serif" font-size="14.00">1</text>
</g>
<!-- 1&#45;&gt;2 -->
<g id="edge9" class="edge">
<title>1&#45;&gt;2</title>
<path fill="none" stroke="black" d="M67.87,-180.71C47.51,-169.64 18.22,-149.93 5.38,-123 -1.51,-108.56 -1.93,-101.23 5.38,-87 18.77,-60.9 47.35,-42.78 70.03,-31.84"/>
<polygon fill="black" stroke="black" points="71.69,-34.93 79.33,-27.59 68.78,-28.57 71.69,-34.93"/>
<text text-anchor="middle" x="10.38" y="-101.3" font-family="Times,serif" font-size="14.00">3</text>
</g>
<!-- 0 -->
<g id="node4" class="node">
<title>0</title>
<ellipse fill="none" stroke="black" cx="51.38" cy="-105" rx="27" ry="18"/>
<text text-anchor="middle" x="51.38" y="-101.3" font-family="Times,serif" font-size="14.00">0</text>
</g>
<!-- 1&#45;&gt;0 -->
<g id="edge10" class="edge">
<title>1&#45;&gt;0</title>
<path fill="none" stroke="black" d="M71.62,-177.92C65.01,-172.02 58.18,-164.46 54.38,-156 51.27,-149.1 49.93,-141.12 49.51,-133.58"/>
<polygon fill="black" stroke="black" points="53.01,-133.36 49.45,-123.39 46.01,-133.41 53.01,-133.36"/>
<text text-anchor="middle" x="59.38" y="-144.8" font-family="Times,serif" font-size="14.00">0</text>
</g>
<!-- 2&#45;&gt;3 -->
<g id="edge4" class="edge">
<title>2&#45;&gt;3</title>
<path fill="none" stroke="black" d="M115.3,-34.19C119.72,-40.06 124.31,-47.03 127.38,-54 133.42,-67.72 131.85,-72.22 134.38,-87 144.97,-149.12 147.05,-165.02 149.38,-228 149.62,-234.66 150.39,-236.41 149.38,-243 148.96,-245.74 148.36,-248.56 147.66,-251.35"/>
<polygon fill="black" stroke="black" points="144.24,-250.58 144.81,-261.16 150.96,-252.53 144.24,-250.58"/>
<text text-anchor="middle" x="149.38" y="-144.8" font-family="Times,serif" font-size="14.00">5</text>
</g>
<!-- 2&#45;&gt;1 -->
<g id="edge3" class="edge">
<title>2&#45;&gt;1</title>
<path fill="none" stroke="black" d="M101.09,-36.05C98.83,-65.88 94.16,-127.76 91.44,-163.64"/>
<polygon fill="black" stroke="black" points="87.93,-163.64 90.67,-173.88 94.91,-164.17 87.93,-163.64"/>
<text text-anchor="middle" x="101.38" y="-101.3" font-family="Times,serif" font-size="14.00">0</text>
</g>
<!-- 2&#45;&gt;0 -->
<g id="edge5" class="edge">
<title>2&#45;&gt;0</title>
<path fill="none" stroke="black" d="M92.83,-34.92C85.36,-47.36 74.84,-64.89 66.27,-79.18"/>
<polygon fill="black" stroke="black" points="63.11,-77.64 60.97,-88.01 69.11,-81.24 63.11,-77.64"/>
<text text-anchor="middle" x="85.38" y="-57.8" font-family="Times,serif" font-size="14.00">0</text>
</g>
<!-- 0&#45;&gt;1 -->
<g id="edge7" class="edge">
<title>0&#45;&gt;1</title>
<path fill="none" stroke="black" d="M58.68,-122.34C64.09,-134.44 71.57,-151.17 77.79,-165.08"/>
<polygon fill="black" stroke="black" points="74.77,-166.91 82.05,-174.61 81.16,-164.05 74.77,-166.91"/>
<text text-anchor="middle" x="78.38" y="-144.8" font-family="Times,serif" font-size="14.00">2</text>
</g>
<!-- 0&#45;&gt;2 -->
<g id="edge6" class="edge">
<title>0&#45;&gt;2</title>
<path fill="none" stroke="black" d="M51.58,-86.79C52.38,-76.65 54.61,-63.91 60.38,-54 64.03,-47.72 69.26,-42.06 74.79,-37.22"/>
<polygon fill="black" stroke="black" points="77.31,-39.69 82.97,-30.73 72.96,-34.2 77.31,-39.69"/>
<text text-anchor="middle" x="65.38" y="-57.8" font-family="Times,serif" font-size="14.00">4</text>
</g>
</g>
</svg>
